<?xml version="1.0" encoding="utf-8"?>
<!-- Generator: Adobe Illustrator 27.5.0, SVG Export Plug-In . SVG Version: 6.00 Build 0)  -->
<svg version="1.1" xmlns="http://www.w3.org/2000/svg" xmlns:xlink="http://www.w3.org/1999/xlink" x="0px" y="0px"
	 viewBox="0 0 800 800" style="enable-background:new 0 0 800 800;" xml:space="preserve">
<g id="background">
	<g>
		<path style="fill:#363738;" d="M289.135,775.598c-0.338,0-0.602,0.119-0.787,0.353c-0.184,0.236-0.275,0.588-0.275,1.049v3.328
			c-0.424-0.461-0.855-0.805-1.303-1.027c-0.447-0.223-0.996-0.336-1.645-0.336c-1.125,0-2.029,0.395-2.718,1.182
			c-0.686,0.789-1.032,1.887-1.032,3.293c0,0.67,0.084,1.287,0.262,1.859c0.172,0.572,0.425,1.074,0.763,1.492
			c0.335,0.426,0.732,0.752,1.193,0.982c0.46,0.225,0.959,0.344,1.499,0.344c0.406,0,0.782-0.059,1.125-0.172
			c0.346-0.111,0.664-0.275,0.961-0.496c0.293-0.217,0.591-0.5,0.895-0.844v0.221c0,0.412,0.099,0.732,0.302,0.957
			c0.201,0.223,0.452,0.334,0.761,0.334c0.316,0,0.57-0.111,0.77-0.326c0.198-0.213,0.299-0.535,0.299-0.965v-9.939
			c0-0.428-0.093-0.744-0.275-0.965C289.742,775.705,289.478,775.598,289.135,775.598z M287.656,785.113
			c-0.196,0.428-0.459,0.74-0.787,0.947c-0.326,0.209-0.689,0.313-1.084,0.313c-0.393,0-0.753-0.109-1.082-0.328
			c-0.331-0.217-0.59-0.541-0.779-0.969c-0.191-0.428-0.287-0.949-0.287-1.563c0-0.576,0.092-1.086,0.27-1.518
			c0.18-0.44,0.433-0.777,0.757-1.012c0.323-0.236,0.692-0.352,1.104-0.352c0.397,0,0.763,0.115,1.096,0.346
			c0.335,0.227,0.598,0.557,0.794,0.988c0.193,0.432,0.292,0.947,0.292,1.547C287.948,784.152,287.85,784.688,287.656,785.113z"/>
		<path style="fill:#363738;" d="M300.127,783.836c0.324-0.17,0.49-0.539,0.49-1.105c0-0.609-0.158-1.211-0.473-1.801
			c-0.315-0.588-0.787-1.066-1.416-1.44c-0.631-0.373-1.387-0.557-2.266-0.557c-0.676,0-1.296,0.109-1.85,0.326
			c-0.558,0.217-1.025,0.529-1.404,0.935c-0.381,0.408-0.67,0.898-0.867,1.467c-0.198,0.57-0.299,1.19-0.299,1.852
			c0,1.418,0.406,2.535,1.208,3.361c0.802,0.826,1.927,1.242,3.376,1.242c0.633,0,1.193-0.086,1.68-0.25
			c0.486-0.166,0.893-0.375,1.216-0.621c0.32-0.252,0.56-0.516,0.722-0.787c0.159-0.271,0.238-0.512,0.238-0.715
			c0-0.23-0.072-0.41-0.216-0.535c-0.142-0.125-0.33-0.191-0.56-0.191c-0.215,0-0.381,0.051-0.497,0.148
			c-0.28,0.264-0.509,0.473-0.683,0.629c-0.179,0.152-0.369,0.295-0.579,0.434c-0.21,0.135-0.425,0.234-0.647,0.299
			c-0.223,0.061-0.472,0.094-0.739,0.094c-0.402,0-0.768-0.1-1.101-0.301c-0.336-0.195-0.603-0.492-0.803-0.881
			c-0.202-0.391-0.305-0.842-0.309-1.356h4.409C299.347,784.084,299.805,784.002,300.127,783.836z M294.35,782.809
			c0.072-0.764,0.293-1.338,0.654-1.725c0.36-0.389,0.824-0.58,1.383-0.58c0.59,0,1.065,0.19,1.422,0.574
			c0.364,0.381,0.573,0.959,0.626,1.73H294.35z"/>
		<path style="fill:#363738;" d="M308.424,783.227c-0.444-0.236-1.018-0.44-1.715-0.611c-0.59-0.142-1.051-0.266-1.387-0.363
			c-0.336-0.1-0.604-0.225-0.804-0.375c-0.196-0.152-0.296-0.346-0.296-0.582c0-0.258,0.136-0.475,0.405-0.648
			c0.271-0.174,0.607-0.262,1.015-0.262c0.397,0,0.711,0.066,0.942,0.201c0.233,0.131,0.431,0.307,0.603,0.529
			c0.209,0.262,0.396,0.457,0.558,0.594c0.161,0.129,0.358,0.197,0.592,0.197c0.317,0,0.565-0.084,0.738-0.248
			c0.174-0.166,0.26-0.379,0.26-0.637c0-0.236-0.083-0.477-0.243-0.727c-0.161-0.25-0.398-0.473-0.71-0.676
			c-0.312-0.203-0.7-0.365-1.165-0.49c-0.466-0.119-0.988-0.178-1.574-0.178c-0.742,0-1.375,0.115-1.903,0.359
			c-0.522,0.238-0.923,0.559-1.192,0.959c-0.271,0.402-0.403,0.832-0.403,1.279c0,0.508,0.146,0.932,0.436,1.283
			c0.293,0.344,0.681,0.625,1.17,0.836c0.486,0.211,1.118,0.414,1.893,0.605c0.691,0.166,1.182,0.34,1.483,0.522
			c0.3,0.184,0.452,0.471,0.452,0.869c0,0.256-0.148,0.488-0.438,0.685c-0.285,0.203-0.658,0.305-1.111,0.305
			c-0.554,0-0.994-0.102-1.315-0.301c-0.32-0.197-0.6-0.494-0.828-0.898c-0.115-0.209-0.238-0.371-0.366-0.488
			c-0.126-0.113-0.306-0.172-0.544-0.172c-0.27,0-0.493,0.088-0.67,0.266c-0.175,0.176-0.263,0.389-0.263,0.635
			c0,0.373,0.14,0.748,0.411,1.119c0.275,0.371,0.701,0.682,1.28,0.926c0.577,0.25,1.272,0.377,2.082,0.377
			c0.848,0,1.569-0.119,2.162-0.344c0.589-0.23,1.034-0.564,1.339-1.01c0.303-0.443,0.455-0.977,0.455-1.598
			c0-0.41-0.115-0.779-0.344-1.104C309.201,783.742,308.866,783.465,308.424,783.227z"/>
		<path style="fill:#363738;" d="M312.795,778.951c-0.328,0-0.602,0.109-0.805,0.338c-0.208,0.223-0.311,0.559-0.311,1.006v6.451
			c0,0.439,0.103,0.775,0.311,1.014c0.203,0.236,0.477,0.357,0.805,0.357c0.329,0,0.602-0.119,0.815-0.35
			c0.216-0.23,0.324-0.572,0.324-1.021v-6.518c0-0.398-0.108-0.717-0.324-0.939C313.396,779.06,313.124,778.951,312.795,778.951z"/>
		<path style="fill:#363738;" d="M312.819,775.695c-0.302,0-0.568,0.104-0.796,0.313c-0.23,0.203-0.344,0.465-0.344,0.785
			c0,0.355,0.113,0.627,0.334,0.818c0.224,0.193,0.49,0.291,0.806,0.291c0.302,0,0.563-0.102,0.784-0.295
			c0.222-0.197,0.331-0.467,0.331-0.814c0-0.358-0.114-0.629-0.339-0.818C313.367,775.791,313.109,775.695,312.819,775.695z"/>
		<path style="fill:#363738;" d="M323.471,778.951c-0.305,0-0.551,0.104-0.741,0.322c-0.192,0.213-0.29,0.516-0.29,0.908v0.301
			c-0.403-0.522-0.837-0.904-1.305-1.148c-0.469-0.246-1.022-0.369-1.657-0.369c-0.537,0-1.027,0.096-1.472,0.287
			c-0.449,0.189-0.841,0.469-1.183,0.844c-0.341,0.373-0.603,0.834-0.788,1.379c-0.185,0.547-0.275,1.156-0.275,1.832
			c0,0.91,0.15,1.711,0.455,2.404c0.299,0.695,0.734,1.233,1.301,1.619c0.563,0.385,1.223,0.578,1.975,0.578
			c0.63,0,1.168-0.125,1.622-0.381c0.456-0.252,0.858-0.621,1.204-1.105c-0.013,0.74-0.029,1.275-0.05,1.605
			c-0.023,0.336-0.098,0.645-0.227,0.94c-0.132,0.291-0.356,0.516-0.68,0.68c-0.319,0.164-0.774,0.244-1.356,0.244
			c-0.286,0-0.542-0.027-0.761-0.08c-0.219-0.051-0.41-0.129-0.564-0.238c-0.159-0.109-0.303-0.238-0.43-0.391
			c-0.132-0.148-0.257-0.299-0.377-0.447c-0.248-0.293-0.538-0.439-0.865-0.439c-0.267,0-0.494,0.086-0.68,0.264
			c-0.186,0.172-0.28,0.396-0.28,0.672c0,0.363,0.167,0.715,0.496,1.063c0.329,0.34,0.8,0.621,1.412,0.84
			c0.61,0.217,1.307,0.326,2.082,0.326c0.847,0,1.556-0.086,2.124-0.254c0.57-0.172,1.033-0.434,1.383-0.787
			c0.354-0.354,0.609-0.797,0.767-1.338c0.161-0.541,0.241-1.184,0.241-1.932V780.6c0-0.535-0.071-0.943-0.213-1.223
			C324.192,779.094,323.904,778.951,323.471,778.951z M322.044,785.021c-0.209,0.404-0.481,0.711-0.815,0.91
			c-0.333,0.199-0.685,0.301-1.06,0.301c-0.634,0-1.148-0.234-1.549-0.701c-0.4-0.469-0.599-1.16-0.599-2.074
			c0-0.904,0.194-1.598,0.583-2.088c0.389-0.492,0.903-0.736,1.549-0.736c0.658,0,1.193,0.258,1.598,0.766
			c0.402,0.514,0.607,1.231,0.607,2.148C322.357,784.127,322.251,784.617,322.044,785.021z"/>
		<path style="fill:#363738;" d="M334.444,780.435c-0.23-0.475-0.581-0.84-1.046-1.1c-0.471-0.258-1-0.385-1.596-0.385
			c-0.611,0-1.153,0.121-1.622,0.365c-0.474,0.246-0.904,0.629-1.3,1.152v-0.273c0-0.271-0.049-0.496-0.146-0.685
			c-0.095-0.186-0.226-0.326-0.383-0.42c-0.16-0.092-0.34-0.139-0.535-0.139c-0.328,0-0.584,0.104-0.769,0.314
			c-0.188,0.213-0.282,0.533-0.282,0.963v6.518c0,0.439,0.103,0.775,0.313,1.014c0.211,0.236,0.478,0.357,0.803,0.357
			c0.334,0,0.609-0.119,0.821-0.344c0.21-0.23,0.317-0.572,0.317-1.027v-2.826c0-0.918,0.056-1.547,0.164-1.883
			c0.154-0.42,0.398-0.75,0.727-0.988c0.332-0.238,0.697-0.357,1.1-0.357c0.616,0,1.029,0.199,1.235,0.588
			c0.206,0.396,0.308,0.965,0.308,1.709v3.758c0,0.439,0.105,0.775,0.313,1.014c0.213,0.236,0.483,0.357,0.818,0.357
			c0.332,0,0.598-0.119,0.806-0.35c0.206-0.23,0.31-0.572,0.31-1.021v-4.197c0-0.494-0.022-0.902-0.064-1.223
			C334.689,781.008,334.592,780.713,334.444,780.435z"/>
		<path style="fill:#363738;" d="M344.709,783.836c0.322-0.17,0.484-0.539,0.484-1.105c0-0.609-0.152-1.211-0.469-1.801
			c-0.314-0.588-0.785-1.066-1.417-1.44c-0.632-0.373-1.386-0.557-2.264-0.557c-0.679,0-1.296,0.109-1.85,0.326
			c-0.558,0.217-1.025,0.529-1.404,0.935c-0.38,0.408-0.671,0.898-0.868,1.467c-0.194,0.57-0.299,1.19-0.299,1.852
			c0,1.418,0.405,2.535,1.208,3.361c0.805,0.826,1.926,1.242,3.377,1.242c0.631,0,1.193-0.086,1.682-0.25
			c0.486-0.166,0.891-0.375,1.211-0.621c0.323-0.252,0.563-0.516,0.725-0.787c0.159-0.271,0.238-0.512,0.238-0.715
			c0-0.23-0.072-0.41-0.215-0.535c-0.145-0.125-0.328-0.191-0.561-0.191c-0.214,0-0.381,0.051-0.497,0.148
			c-0.28,0.264-0.509,0.473-0.684,0.629c-0.177,0.152-0.368,0.295-0.578,0.434c-0.21,0.135-0.427,0.234-0.648,0.299
			c-0.224,0.061-0.469,0.094-0.739,0.094c-0.402,0-0.768-0.1-1.102-0.301c-0.334-0.195-0.603-0.492-0.803-0.881
			c-0.202-0.391-0.303-0.842-0.309-1.356h4.409C343.927,784.084,344.383,784.002,344.709,783.836z M338.928,782.809
			c0.078-0.764,0.297-1.338,0.655-1.725c0.36-0.389,0.823-0.58,1.387-0.58c0.587,0,1.062,0.19,1.423,0.574
			c0.359,0.381,0.568,0.959,0.623,1.73H338.928z"/>
		<path style="fill:#363738;" d="M354.336,775.598c-0.345,0-0.603,0.119-0.787,0.353c-0.186,0.236-0.279,0.588-0.279,1.049v3.328
			c-0.424-0.461-0.856-0.805-1.305-1.027c-0.445-0.223-0.988-0.336-1.64-0.336c-1.125,0-2.032,0.395-2.719,1.182
			c-0.688,0.789-1.032,1.887-1.032,3.293c0,0.67,0.088,1.287,0.261,1.859c0.171,0.572,0.431,1.074,0.762,1.492
			c0.337,0.426,0.734,0.752,1.192,0.982c0.461,0.225,0.961,0.344,1.5,0.344c0.405,0,0.783-0.059,1.128-0.172
			c0.343-0.111,0.663-0.275,0.956-0.496c0.297-0.217,0.596-0.5,0.897-0.844v0.221c0,0.412,0.102,0.732,0.303,0.957
			c0.201,0.223,0.456,0.334,0.764,0.334c0.313,0,0.567-0.111,0.768-0.326c0.197-0.213,0.299-0.535,0.299-0.965v-9.939
			c0-0.428-0.091-0.744-0.275-0.965C354.938,775.705,354.678,775.598,354.336,775.598z M352.853,785.113
			c-0.195,0.428-0.458,0.74-0.781,0.947c-0.331,0.209-0.692,0.313-1.09,0.313c-0.389,0-0.751-0.109-1.08-0.328
			c-0.332-0.217-0.59-0.541-0.779-0.969c-0.191-0.428-0.286-0.949-0.286-1.563c0-0.576,0.089-1.086,0.269-1.518
			c0.178-0.44,0.43-0.777,0.754-1.012c0.326-0.236,0.693-0.352,1.109-0.352c0.395,0,0.759,0.115,1.092,0.346
			c0.335,0.227,0.598,0.557,0.793,0.988c0.195,0.432,0.297,0.947,0.297,1.547C353.15,784.152,353.049,784.688,352.853,785.113z"/>
		<path style="fill:#363738;" d="M368.873,779.498c-0.564-0.355-1.221-0.533-1.97-0.533c-0.647,0-1.193,0.115-1.636,0.352
			c-0.439,0.234-0.871,0.568-1.295,1.012v-3.441c0-0.416-0.094-0.734-0.281-0.957c-0.188-0.221-0.453-0.332-0.801-0.332
			c-0.331,0-0.586,0.117-0.771,0.35c-0.186,0.232-0.278,0.58-0.278,1.037v9.842c0,0.428,0.096,0.742,0.283,0.965
			c0.191,0.215,0.447,0.326,0.766,0.326c0.314,0,0.572-0.111,0.777-0.326c0.203-0.223,0.305-0.537,0.305-0.965v-0.221
			c0.249,0.283,0.445,0.502,0.598,0.642c0.151,0.141,0.336,0.281,0.55,0.416c0.214,0.135,0.475,0.244,0.781,0.326
			c0.305,0.084,0.63,0.127,0.977,0.127c0.567,0,1.085-0.119,1.557-0.344c0.471-0.23,0.872-0.555,1.202-0.973
			c0.328-0.416,0.582-0.912,0.757-1.48c0.173-0.57,0.258-1.195,0.258-1.881c0-0.922-0.154-1.725-0.466-2.398
			C369.874,780.367,369.438,779.852,368.873,779.498z M367.776,785.633c-0.413,0.492-0.901,0.74-1.468,0.74
			c-0.666,0-1.202-0.242-1.613-0.723c-0.412-0.482-0.617-1.17-0.617-2.068c0-0.609,0.097-1.139,0.291-1.58
			c0.191-0.445,0.456-0.783,0.791-1.018c0.338-0.236,0.718-0.352,1.148-0.352c0.42,0,0.785,0.115,1.099,0.352
			c0.314,0.234,0.554,0.564,0.726,0.996c0.172,0.43,0.256,0.939,0.256,1.533C368.389,784.434,368.185,785.141,367.776,785.633z"/>
		<path style="fill:#363738;" d="M379.277,779.086c-0.158-0.092-0.32-0.135-0.492-0.135c-0.234,0-0.419,0.039-0.549,0.121
			c-0.129,0.082-0.252,0.244-0.369,0.478c-0.113,0.238-0.244,0.564-0.386,0.984l-1.808,5.16l-1.908-5.549
			c-0.127-0.389-0.274-0.678-0.436-0.887c-0.167-0.207-0.412-0.309-0.737-0.309c-0.187,0-0.366,0.049-0.542,0.147
			c-0.172,0.1-0.309,0.228-0.408,0.394c-0.098,0.164-0.149,0.346-0.149,0.539c0,0.182,0.085,0.473,0.257,0.875l2.773,6.986
			l-0.203,0.504c-0.158,0.365-0.292,0.648-0.411,0.836c-0.116,0.189-0.253,0.324-0.399,0.4c-0.151,0.078-0.353,0.115-0.61,0.115
			c-0.106,0-0.229-0.016-0.372-0.049c-0.116-0.031-0.233-0.051-0.357-0.051c-0.307,0-0.541,0.072-0.695,0.213
			c-0.159,0.141-0.234,0.34-0.234,0.6c0,0.379,0.166,0.639,0.494,0.783c0.33,0.145,0.825,0.215,1.484,0.215
			c0.675,0,1.217-0.103,1.614-0.311c0.401-0.209,0.722-0.504,0.962-0.889c0.246-0.385,0.489-0.914,0.746-1.596l2.938-7.69
			c0.072-0.201,0.133-0.396,0.184-0.59c0.05-0.191,0.084-0.342,0.105-0.445c0-0.17-0.042-0.33-0.129-0.486
			C379.553,779.299,379.434,779.178,379.277,779.086z"/>
		<path style="fill:#363738;" d="M419.502,775.598c-0.743,0-1.329,0.09-1.755,0.283c-0.427,0.189-0.733,0.492-0.908,0.91
			c-0.178,0.414-0.269,0.975-0.269,1.68v0.678h-0.536c-0.755,0-1.132,0.272-1.132,0.807c0,0.244,0.089,0.441,0.273,0.59
			c0.181,0.154,0.438,0.228,0.776,0.228h0.618v5.973c0,0.443,0.107,0.783,0.32,1.016c0.211,0.236,0.475,0.355,0.792,0.355
			c0.338,0,0.612-0.119,0.824-0.355c0.21-0.232,0.318-0.572,0.318-1.016v-5.973h0.554c0.401,0,0.716-0.049,0.946-0.146
			c0.225-0.102,0.34-0.334,0.34-0.705c0-0.514-0.427-0.773-1.286-0.773h-0.554v-0.539c0-0.443,0.058-0.787,0.173-1.027
			c0.117-0.24,0.378-0.357,0.784-0.357c0.15,0,0.331,0.014,0.544,0.047c0.214,0.033,0.366,0.051,0.453,0.051
			c0.189,0,0.351-0.074,0.49-0.223c0.138-0.148,0.207-0.326,0.207-0.537C421.477,775.918,420.817,775.598,419.502,775.598z"/>
		<path style="fill:#363738;" d="M427.354,779.303c-0.447-0.236-0.906-0.352-1.379-0.352c-0.474,0-0.852,0.115-1.134,0.352
			c-0.284,0.238-0.561,0.59-0.832,1.051c-0.019-0.461-0.108-0.813-0.272-1.051c-0.165-0.236-0.433-0.352-0.81-0.352
			c-0.731,0-1.099,0.504-1.099,1.518v6.277c0,0.449,0.105,0.791,0.315,1.021c0.209,0.23,0.474,0.35,0.799,0.35
			c0.331,0,0.604-0.119,0.82-0.344c0.214-0.23,0.321-0.572,0.321-1.027v-1.887c0-0.674,0.02-1.248,0.066-1.719
			c0.044-0.473,0.125-0.877,0.239-1.219c0.113-0.342,0.279-0.6,0.486-0.773c0.208-0.17,0.477-0.258,0.81-0.258
			c0.24,0,0.522,0.051,0.838,0.15c0.314,0.102,0.518,0.154,0.6,0.154c0.22,0,0.421-0.092,0.61-0.268
			c0.194-0.18,0.285-0.406,0.285-0.682C428.02,779.856,427.801,779.541,427.354,779.303z"/>
		<path style="fill:#363738;" d="M436.496,783.836c0.326-0.17,0.486-0.539,0.486-1.105c0-0.609-0.159-1.211-0.472-1.801
			c-0.311-0.588-0.784-1.066-1.415-1.44c-0.631-0.373-1.388-0.557-2.267-0.557c-0.676,0-1.291,0.109-1.849,0.326
			c-0.557,0.217-1.024,0.529-1.406,0.935c-0.379,0.408-0.668,0.898-0.865,1.467c-0.196,0.57-0.3,1.19-0.3,1.852
			c0,1.418,0.405,2.535,1.207,3.361c0.804,0.826,1.928,1.242,3.376,1.242c0.634,0,1.197-0.086,1.68-0.25
			c0.49-0.166,0.896-0.375,1.218-0.621c0.319-0.252,0.559-0.516,0.719-0.787c0.162-0.271,0.24-0.512,0.24-0.715
			c0-0.23-0.069-0.41-0.213-0.535c-0.142-0.125-0.332-0.191-0.559-0.191c-0.215,0-0.384,0.051-0.5,0.148
			c-0.276,0.264-0.509,0.473-0.684,0.629c-0.175,0.152-0.368,0.295-0.581,0.434c-0.207,0.135-0.422,0.234-0.646,0.299
			c-0.223,0.061-0.47,0.094-0.74,0.094c-0.398,0-0.766-0.1-1.102-0.301c-0.335-0.195-0.601-0.492-0.802-0.881
			c-0.198-0.391-0.304-0.842-0.307-1.356h4.407C435.714,784.084,436.169,784.002,436.496,783.836z M430.717,782.809
			c0.078-0.764,0.295-1.338,0.656-1.725c0.358-0.389,0.82-0.58,1.384-0.58c0.588,0,1.063,0.19,1.422,0.574
			c0.363,0.381,0.566,0.959,0.624,1.73H430.717z"/>
		<path style="fill:#363738;" d="M446.544,783.836c0.325-0.17,0.486-0.539,0.486-1.105c0-0.609-0.156-1.211-0.47-1.801
			c-0.313-0.588-0.786-1.066-1.415-1.44c-0.632-0.373-1.386-0.557-2.268-0.557c-0.675,0-1.293,0.109-1.85,0.326
			c-0.557,0.217-1.022,0.529-1.401,0.935c-0.381,0.408-0.669,0.898-0.87,1.467c-0.197,0.57-0.294,1.19-0.294,1.852
			c0,1.418,0.401,2.535,1.203,3.361c0.805,0.826,1.93,1.242,3.379,1.242c0.632,0,1.191-0.086,1.678-0.25
			c0.489-0.166,0.893-0.375,1.217-0.621c0.319-0.252,0.562-0.516,0.724-0.787c0.155-0.271,0.234-0.512,0.234-0.715
			c0-0.23-0.07-0.41-0.213-0.535c-0.144-0.125-0.329-0.191-0.56-0.191c-0.218,0-0.38,0.051-0.495,0.148
			c-0.282,0.264-0.511,0.473-0.686,0.629c-0.175,0.152-0.37,0.295-0.577,0.434c-0.211,0.135-0.427,0.234-0.649,0.299
			c-0.224,0.061-0.471,0.094-0.739,0.094c-0.402,0-0.769-0.1-1.103-0.301c-0.332-0.195-0.601-0.492-0.801-0.881
			c-0.2-0.391-0.303-0.842-0.309-1.356h4.409C445.766,784.084,446.22,784.002,446.544,783.836z M440.765,782.809
			c0.074-0.764,0.299-1.338,0.654-1.725c0.364-0.389,0.822-0.58,1.386-0.58c0.587,0,1.063,0.19,1.423,0.574
			c0.36,0.381,0.569,0.959,0.623,1.73H440.765z"/>
		<path style="fill:#363738;" d="M455.578,779.504c-0.583-0.361-1.223-0.539-1.917-0.539c-0.578,0-1.093,0.123-1.552,0.369
			c-0.454,0.244-0.895,0.627-1.32,1.148v-0.27c0-0.406-0.101-0.721-0.302-0.94c-0.201-0.219-0.462-0.322-0.781-0.322
			c-0.326,0-0.579,0.104-0.77,0.314c-0.182,0.213-0.276,0.533-0.276,0.963v9.727c0,0.488,0.067,0.863,0.205,1.117
			c0.138,0.258,0.418,0.387,0.841,0.387c0.721,0,1.083-0.492,1.083-1.484v-3.391c0.395,0.506,0.813,0.885,1.249,1.141
			c0.44,0.26,0.98,0.393,1.623,0.393c0.535,0,1.035-0.107,1.498-0.322c0.467-0.207,0.867-0.512,1.21-0.906
			c0.343-0.393,0.61-0.881,0.807-1.463c0.195-0.582,0.292-1.217,0.292-1.912c0-0.943-0.168-1.754-0.505-2.443
			C456.622,780.385,456.163,779.863,455.578,779.504z M454.917,785.068c-0.195,0.434-0.448,0.76-0.77,0.977
			c-0.316,0.219-0.665,0.328-1.038,0.328c-0.629,0-1.151-0.248-1.579-0.748c-0.424-0.498-0.634-1.197-0.634-2.092
			c0-0.955,0.211-1.674,0.64-2.164c0.425-0.492,0.953-0.736,1.573-0.736c0.393,0,0.745,0.115,1.068,0.346
			c0.322,0.227,0.575,0.553,0.755,0.98c0.183,0.426,0.272,0.938,0.272,1.531C455.205,784.109,455.107,784.635,454.917,785.068z"/>
		<path style="fill:#363738;" d="M460.391,778.951c-0.33,0-0.597,0.109-0.805,0.338c-0.207,0.223-0.309,0.559-0.309,1.006v6.451
			c0,0.439,0.102,0.775,0.309,1.014c0.208,0.236,0.475,0.357,0.805,0.357c0.331,0,0.601-0.119,0.817-0.35
			c0.216-0.23,0.322-0.572,0.322-1.021v-6.518c0-0.398-0.106-0.717-0.322-0.939C460.991,779.06,460.722,778.951,460.391,778.951z"/>
		<path style="fill:#363738;" d="M460.417,775.695c-0.302,0-0.571,0.104-0.798,0.313c-0.227,0.203-0.342,0.465-0.342,0.785
			c0,0.355,0.113,0.627,0.335,0.818c0.219,0.193,0.49,0.291,0.805,0.291c0.303,0,0.565-0.102,0.785-0.295
			c0.218-0.197,0.328-0.467,0.328-0.814c0-0.358-0.113-0.629-0.338-0.818C460.965,775.791,460.709,775.695,460.417,775.695z"/>
		<path style="fill:#363738;" d="M471.298,785.943l-2.311-3.635l1.196-1.098c0.612-0.549,0.919-0.99,0.919-1.318
			c0-0.271-0.096-0.494-0.282-0.672c-0.189-0.182-0.422-0.27-0.702-0.27c-0.235,0-0.437,0.059-0.605,0.178
			c-0.162,0.125-0.4,0.348-0.715,0.682l-2.534,2.656V777c0-0.461-0.105-0.813-0.307-1.049c-0.204-0.234-0.478-0.353-0.823-0.353
			c-0.36,0-0.636,0.131-0.83,0.392c-0.193,0.26-0.287,0.643-0.287,1.143v9.613c0,0.449,0.1,0.791,0.297,1.021
			c0.199,0.23,0.47,0.35,0.82,0.35c0.294,0,0.558-0.119,0.787-0.355c0.228-0.232,0.343-0.566,0.343-1.002v-1.793l1.222-1.154
			l1.988,3.269c0.253,0.393,0.454,0.658,0.603,0.811c0.148,0.148,0.362,0.225,0.637,0.225c0.316,0,0.576-0.104,0.768-0.313
			c0.197-0.209,0.297-0.486,0.297-0.846c0-0.127-0.039-0.262-0.113-0.4C471.593,786.416,471.469,786.211,471.298,785.943z"/>
		<path style="fill:#363738;" d="M475.024,785.629c-0.345,0-0.64,0.121-0.878,0.365c-0.235,0.238-0.353,0.529-0.353,0.865
			c0,0.397,0.125,0.703,0.372,0.924c0.248,0.223,0.544,0.334,0.884,0.334c0.328,0,0.614-0.111,0.862-0.334
			c0.244-0.225,0.367-0.529,0.367-0.924c0-0.344-0.123-0.631-0.367-0.873C475.663,785.748,475.368,785.629,475.024,785.629z"/>
		<path style="fill:#363738;" d="M485.972,784.344c-0.232,0-0.425,0.068-0.586,0.213c-0.16,0.139-0.308,0.342-0.444,0.594
			c-0.251,0.432-0.534,0.748-0.853,0.959c-0.325,0.209-0.713,0.313-1.163,0.313c-0.333,0-0.645-0.068-0.926-0.193
			c-0.277-0.131-0.522-0.318-0.716-0.57c-0.198-0.25-0.351-0.553-0.457-0.908c-0.105-0.354-0.155-0.746-0.155-1.168
			c0-0.9,0.204-1.615,0.612-2.135c0.406-0.52,0.942-0.781,1.608-0.781c0.462,0,0.845,0.107,1.145,0.315
			c0.301,0.211,0.587,0.523,0.862,0.941c0.153,0.215,0.293,0.371,0.416,0.463c0.124,0.1,0.279,0.148,0.467,0.148
			c0.286,0,0.53-0.094,0.728-0.281c0.204-0.188,0.304-0.416,0.304-0.684c0-0.266-0.09-0.551-0.266-0.856
			c-0.181-0.305-0.44-0.594-0.777-0.865c-0.339-0.268-0.754-0.488-1.24-0.66c-0.487-0.17-1.021-0.254-1.605-0.254
			c-0.94,0-1.75,0.193-2.424,0.582c-0.678,0.385-1.199,0.936-1.557,1.645c-0.356,0.711-0.533,1.529-0.533,2.453
			c0,1.365,0.391,2.455,1.173,3.268c0.779,0.813,1.867,1.215,3.257,1.215c0.658,0,1.247-0.086,1.771-0.26
			c0.52-0.178,0.955-0.41,1.302-0.699c0.34-0.291,0.597-0.596,0.764-0.912c0.169-0.32,0.255-0.621,0.255-0.902
			c0-0.236-0.092-0.455-0.276-0.666C486.477,784.445,486.249,784.344,485.972,784.344z"/>
		<path style="fill:#363738;" d="M496.12,780.221c-0.395-0.408-0.874-0.721-1.43-0.941c-0.556-0.221-1.174-0.328-1.858-0.328
			c-0.67,0-1.283,0.104-1.84,0.322c-0.557,0.219-1.031,0.529-1.42,0.932c-0.391,0.402-0.692,0.883-0.898,1.453
			c-0.213,0.568-0.314,1.193-0.314,1.875c0,0.676,0.102,1.295,0.31,1.855c0.206,0.555,0.509,1.039,0.908,1.449
			c0.398,0.416,0.872,0.725,1.415,0.945c0.545,0.223,1.16,0.334,1.84,0.334c0.689,0,1.307-0.111,1.858-0.326
			c0.552-0.223,1.024-0.535,1.42-0.939c0.396-0.408,0.701-0.893,0.911-1.463c0.207-0.566,0.311-1.186,0.311-1.855
			c0-0.68-0.104-1.297-0.307-1.857C496.817,781.115,496.515,780.629,496.12,780.221z M494.465,785.666
			c-0.406,0.514-0.948,0.771-1.633,0.771c-0.45,0-0.841-0.117-1.176-0.35c-0.332-0.234-0.59-0.572-0.769-1.012
			c-0.178-0.441-0.268-0.953-0.268-1.543c0-0.596,0.09-1.117,0.272-1.563c0.182-0.445,0.442-0.779,0.775-1.012
			c0.34-0.228,0.727-0.342,1.165-0.342c0.685,0,1.227,0.256,1.633,0.768c0.402,0.514,0.604,1.228,0.604,2.148
			C495.069,784.44,494.867,785.152,494.465,785.666z"/>
		<path style="fill:#363738;" d="M511.593,780.371c-0.223-0.451-0.552-0.799-0.996-1.045c-0.448-0.24-0.978-0.361-1.596-0.361
			c-0.528,0-1.012,0.113-1.444,0.336c-0.438,0.223-0.842,0.566-1.222,1.027c-0.264-0.457-0.601-0.797-1.01-1.025
			c-0.403-0.225-0.892-0.338-1.46-0.338c-0.545,0-1.038,0.113-1.487,0.332c-0.445,0.219-0.862,0.566-1.251,1.031v-0.213
			c0-0.365-0.106-0.646-0.316-0.855c-0.203-0.207-0.461-0.309-0.771-0.309c-0.316,0-0.577,0.107-0.771,0.328
			c-0.197,0.221-0.294,0.543-0.294,0.967v6.447c0,0.471,0.111,0.822,0.326,1.06c0.219,0.242,0.5,0.363,0.839,0.363
			c0.349,0,0.625-0.121,0.838-0.363c0.212-0.238,0.319-0.59,0.319-1.06v-3.047c0-0.943,0.115-1.672,0.35-2.18
			c0.232-0.504,0.718-0.758,1.457-0.758c0.368,0,0.641,0.1,0.809,0.303c0.169,0.199,0.276,0.455,0.314,0.77
			c0.038,0.316,0.06,0.752,0.06,1.32v3.592c0,0.475,0.104,0.828,0.317,1.066c0.21,0.236,0.488,0.357,0.83,0.357
			c0.351,0,0.636-0.121,0.851-0.357c0.213-0.238,0.32-0.592,0.32-1.066v-2.996c0-0.967,0.084-1.635,0.246-2.014
			c0.15-0.299,0.36-0.535,0.624-0.709c0.268-0.18,0.551-0.266,0.85-0.266c0.366,0,0.643,0.098,0.822,0.297
			c0.18,0.197,0.293,0.443,0.337,0.732c0.038,0.295,0.061,0.684,0.061,1.166v3.789c0,0.471,0.11,0.822,0.326,1.06
			c0.218,0.242,0.5,0.363,0.838,0.363c0.353,0,0.637-0.121,0.85-0.357c0.215-0.238,0.322-0.592,0.322-1.066v-4.4
			C511.882,781.416,511.788,780.779,511.593,780.371z"/>
		<path style="fill:#363738;" d="M394.884,774.951c1.021-0.445,2.109-0.602,3.211-0.621c0.967-0.016,1.944,0.074,2.893,0.164
			c0.068-0.264,0.136-0.535,0.202-0.799c-0.915-0.414-1.921-0.566-2.917-0.559c-0.048-0.143-0.096-0.287-0.145-0.434
			c0.759-0.066,1.268-0.973,0.894-1.647c-0.167-0.381-0.54-0.592-0.927-0.625c-0.393-0.031-0.801,0.119-1.025,0.467
			c-0.484,0.615-0.105,1.59,0.633,1.783c0.043,0.156,0.088,0.313,0.134,0.471c-1.135,0.067-2.293,0.32-3.243,0.973
			C394.691,774.398,394.786,774.674,394.884,774.951z"/>
		<path style="fill:#363738;" d="M409.697,776.238c-0.305,0.156-0.361,0.518-0.345,0.826c-0.337,0.33-0.178,0.824-0.216,1.238
			c-0.075,0.231-0.352,0.258-0.544,0.344c-0.267-0.406-0.548-0.795-0.902-1.125l0.001-0.019c-0.386-0.361-0.805-0.69-1.247-0.979
			c-0.357,0.381-0.729,0.752-1.072,1.15c0.676,0.746,1.305,1.541,1.855,2.383c0.38,0.643,0.689,1.32,0.954,2.016
			c0.571-0.291,1.135-0.598,1.703-0.897c-0.299-0.695-0.646-1.377-1.011-2.043c0.254-0.135,0.594-0.27,0.631-0.6
			c0.032-0.363-0.053-0.758,0.17-1.08c0.438,0.291,1.111-0.039,1.118-0.574C410.849,776.326,410.154,775.922,409.697,776.238z"/>
		<path style="fill:#363738;" d="M403.965,776.971c-1.268-1.113-2.909-1.865-4.614-1.856c-0.417-0.004-0.838,0.01-1.256,0.031
			c-1.739,0.1-3.463,0.459-5.061,1.156c-1.868,0.82-3.495,2.279-4.318,4.178c-0.793,1.699-0.783,3.658-0.425,5.467
			c1.983,0.496,3.996,0.939,6.04,1.037c1.253,0.037,2.512,0.07,3.765,0.022c0.763-0.029,1.525-0.088,2.286-0.193
			c2.752-0.363,5.447-1.236,7.848-2.641c0,0-0.329-1.811-1.623-3.787C405.862,779.15,405.057,777.924,403.965,776.971z
			 M396.868,782.82c-0.374,0.541-0.909,0.965-1.525,1.201c-1.159,0.43-2.568,0.139-3.4-0.787c-0.582-0.643-0.929-1.502-0.864-2.371
			c0.043-1.09,0.714-2.098,1.668-2.607c0.726-0.397,1.606-0.467,2.396-0.244c0.332,0.084,0.641,0.24,0.926,0.43
			c0.582,0.416,1.024,1.031,1.215,1.723C397.559,781.051,397.387,782.051,396.868,782.82z M405.215,780.863
			c-0.134,0.924-1.023,1.715-1.97,1.654c-0.551,0.045-1.082-0.217-1.454-0.603c-0.268-0.33-0.489-0.717-0.525-1.15
			c-0.128-0.945,0.536-1.916,1.459-2.143c0.408-0.113,0.831-0.053,1.232,0.041C404.826,778.971,405.396,779.953,405.215,780.863z"/>
		<path style="fill:#363738;" d="M388.74,777.625c-0.805,0.486-1.468,1.172-2.02,1.926c-0.164-0.297-0.209-0.654-0.42-0.924
			c-0.121-0.158-0.334-0.094-0.502-0.098c-0.213,0.023-0.422-0.033-0.624-0.094c0.235-0.332,0.175-0.842-0.188-1.058
			c-0.385-0.273-0.98-0.035-1.083,0.422c-0.16,0.504,0.372,1.008,0.864,0.875c0.263,0.385,0.735,0.324,1.138,0.34
			c0.184,0.313,0.318,0.66,0.553,0.941c-0.432,0.855-0.675,1.807-0.693,2.762c0.551,0.231,1.104,0.467,1.66,0.697
			c0.029-0.6,0.098-1.201,0.191-1.793c0.185-1.293,0.934-2.418,1.82-3.344C389.217,778.047,388.974,777.844,388.74,777.625z"/>
		<path style="fill:#363738;" d="M398.095,787.85c-0.879,0.045-1.76,0.051-2.637,0.012c-1.412-0.072-2.821-0.203-4.201-0.508
			c-0.98-0.199-1.936-0.482-2.898-0.756c0.154,1.23,0.65,2.406,1.359,3.414c0.838,1.178,1.957,2.258,3.35,2.693
			c1.085,0.291,2.382,0.666,4.614,0.629c0.138-0.002,0.275-0.01,0.413-0.014c1.703-0.063,3.367-0.307,4.869-0.943
			c1.043-0.451,2.023-1.063,2.864-1.83c0.728-0.684,1.297-1.539,1.689-2.459c0.382-0.865,0.724-2.42,0.687-3.221
			c-1.995,1.141-4.232,2.127-6.509,2.514C400.51,787.637,399.304,787.783,398.095,787.85z"/>
	</g>
</g>
	<g id="object">
	<g>
		<defs>
			<path id="SVGID_1_" d="M735.902,592.95c0,40.854-33.117,73.971-73.972,73.971c-40.852,0-73.97-33.116-73.97-73.971
				c0-40.852,33.118-73.969,73.97-73.969C702.785,518.981,735.902,552.099,735.902,592.95z"/>
		</defs>
		<clipPath id="SVGID_00000151531240422221734190000013872710352681623739_">
			<use xlink:href="#SVGID_1_" style="overflow:visible;"/>
		</clipPath>
		<path style="clip-path:url(#SVGID_00000151531240422221734190000013872710352681623739_);fill:#735542;" d="M735.902,592.95
			c0,40.854-33.117,73.971-73.972,73.971c-40.852,0-73.97-33.116-73.97-73.971c0-40.852,33.118-73.969,73.97-73.969
			C702.785,518.981,735.902,552.099,735.902,592.95z"/>
		<g style="clip-path:url(#SVGID_00000151531240422221734190000013872710352681623739_);">
			<path style="fill:#E6A123;" d="M631.375,596.787c8.359,16.94,57.172,15.819,63.248-4.896c5.497-18.746,6.792-29.648,0.733-40.908
				c-5.465-10.16-14.808-16.53-32.359-16.53c-19.806,0-28.409,6.711-33.766,18.311C623.876,564.364,623.016,579.848,631.375,596.787
				z"/>
			<path style="fill:#DED2B5;" d="M671.602,614.366c-0.75-7.217,0.191-22.475,0.191-22.475h-19.827c0,0,1.428,15.792,0.332,22.446
				c-7.447,1.477-12.589,4.617-12.589,8.258c0,5.057,9.926,9.154,22.171,9.154s22.171-4.098,22.171-9.154
				C684.051,618.979,678.973,615.854,671.602,614.366z"/>
			<path style="fill:#F1E4C4;" d="M688.803,567.477c-0.434,0-0.855,0.072-1.263,0.204c-3.464-10.992-13.682-16.716-25.752-16.716
				c-11.988,0-22.148,5.619-25.679,16.495c-0.139-0.014-0.28-0.025-0.424-0.025c-3.213,0-5.818,3.793-5.818,8.471
				c0,4.504,2.416,8.186,5.466,8.452c1.682,10.874,7.792,18.731,26.455,18.731c18.651,0,24.766-7.846,26.453-18.71
				c0.185,0.024,0.372,0.038,0.561,0.038c3.214,0,5.82-3.791,5.82-8.469C694.623,571.271,692.017,567.477,688.803,567.477z"/>
			<path style="fill:#E6A123;" d="M636.109,567.461c-0.424-0.025-0.704-0.016-1.678,0.174c-0.814-3.74,0.1-15.292,10.24-23.876
				c19.213-16.268,13.199-6.846,24.035-1.055c10.837,5.791,15.356,6.461,19.466,13.56c4.11,7.1,2.531,11.679,2.531,11.679
				s-1.192-0.839-3.164-0.262c-0.553,0.063-8.413,1.298-13.842-4.128C662.981,552.843,649.682,570.246,636.109,567.461z"/>
			<path style="fill:#E74424;" d="M684.949,617.11c-5.217-2.379-10.429-3.805-12.853-3.805c0,0-0.011-0.034-0.38-0.04
				c0-0.021-2.289,7.59-9.077,7.59s-10.345-7.639-10.347-7.588c-0.418-0.015-0.629,0.038-0.629,0.038
				c-2.424,0-7.637,1.426-12.853,3.805c-7.148,3.263-14.304,8.315-14.304,13.951c0,9.747,0,35.859,0,35.859h37.373h37.372
				c0,0,0-26.112,0-35.859C699.252,625.426,692.097,620.373,684.949,617.11z"/>
			<path style="fill:#FFFFFF;" d="M664.074,627.662c0,1.006-0.815,1.821-1.821,1.821c-1.007,0-1.822-0.815-1.822-1.821
				c0-1.006,0.815-1.82,1.822-1.82C663.259,625.842,664.074,626.656,664.074,627.662z"/>
			<path style="fill:#FFFFFF;" d="M664.066,635.695c0,1.007-0.815,1.823-1.822,1.823c-1.006,0-1.821-0.817-1.821-1.823
				c0-1.006,0.815-1.82,1.821-1.82C663.251,633.875,664.066,634.69,664.066,635.695z"/>
			<path style="fill:#FFFFFF;" d="M664.059,643.731c0,1.007-0.815,1.821-1.822,1.821c-1.006,0-1.821-0.815-1.821-1.821
				c0-1.006,0.815-1.822,1.821-1.822C663.243,641.908,664.059,642.725,664.059,643.731z"/>
		</g>
	</g>
		<g>
		<defs>
			<path id="SVGID_00000090993029684792602210000001860312906860473264_" d="M562.074,592.95c0,40.854-33.118,73.971-73.971,73.971
				c-40.851,0-73.971-33.116-73.971-73.971c0-40.852,33.119-73.969,73.971-73.969C528.956,518.981,562.074,552.099,562.074,592.95z"
			/>
		</defs>
			<clipPath id="SVGID_00000052823052929949877350000006394748677355102873_">
			<use xlink:href="#SVGID_00000090993029684792602210000001860312906860473264_" style="overflow:visible;"/>
		</clipPath>
			<path style="clip-path:url(#SVGID_00000052823052929949877350000006394748677355102873_);fill:#E6A123;" d="M562.074,592.95
			c0,40.854-33.118,73.971-73.971,73.971c-40.851,0-73.971-33.116-73.971-73.971c0-40.852,33.119-73.969,73.971-73.969
			C528.956,518.981,562.074,552.099,562.074,592.95z"/>
			<g style="clip-path:url(#SVGID_00000052823052929949877350000006394748677355102873_);">
			<path style="fill:#DED2B5;" d="M511.173,617.11c-5.217-2.379-10.429-3.805-12.853-3.805c0,0-0.386-0.034-0.754-0.04
				c-0.191-7.679,0.445-17.99,0.445-17.99h-19.827c0,0,0.95,10.507,0.706,17.992c-0.419-0.015-1.003,0.038-1.003,0.038
				c-2.424,0-7.638,1.426-12.854,3.805c-7.148,3.263-14.304,8.315-14.304,13.951c0,9.747,0,35.859,0,35.859h37.373h37.372
				c0,0,0-26.112,0-35.859C525.476,625.426,518.32,620.373,511.173,617.11z"/>
				<path style="fill:#A26280;" d="M511.173,617.11c-5.217-2.379-10.429-3.805-12.853-3.805c0,0-0.386-0.034-0.754-0.04
				c0-0.021-3.378,9.52-9.098,20.355c-4.495-13.949-9.577-20.404-9.578-20.354c-0.419-0.015-1.003,0.038-1.003,0.038
				c-2.424,0-7.638,1.426-12.854,3.805c-7.148,3.263-14.304,8.315-14.304,13.951c0,9.747,0,35.859,0,35.859h37.373h37.372
				c0,0,0-26.112,0-35.859C525.476,625.426,518.32,620.373,511.173,617.11z"/>
				<path style="fill:#F1E4C4;" d="M515.026,568.99c-0.434,0-0.855,0.07-1.263,0.203c-3.464-10.991-13.682-16.716-25.752-16.716
				c-11.988,0-22.147,5.62-25.678,16.496c-0.14-0.017-0.281-0.026-0.424-0.026c-3.214,0-5.82,3.793-5.82,8.471
				c0,4.505,2.417,8.186,5.467,8.453c1.682,10.874,7.792,18.731,26.455,18.731c18.652,0,24.766-7.846,26.453-18.711
				c0.184,0.024,0.371,0.039,0.562,0.039c3.214,0,5.82-3.791,5.82-8.469C520.847,572.782,518.24,568.99,515.026,568.99z"/>
				<path style="fill:#664B3A;" d="M462.334,568.974c-0.424-0.026-0.705-0.017-1.679,0.174c-0.813-3.741,0.148-11.873,10.24-20.515
				c16.099-13.786,39.36-6.219,48.235-1.734c8.875,4.484-6.517,3.492-2.71,11.023c4.204,8.314,0.507,11.533,0.507,11.533
				s-1.192-0.838-3.164-0.262c-0.553,0.063-8.412,1.299-13.842-4.127C489.205,554.356,475.906,571.758,462.334,568.974z"/>
		</g>
	</g>
		<g>
		<defs>
			
				<ellipse id="SVGID_00000109736172035576956120000016144017704890825628_"
						 transform="matrix(0.231 -0.973 0.973 0.231 -278.087 441.8177)" cx="140.448" cy="396.825"
						 rx="73.97" ry="73.97"/>
		</defs>
			<clipPath id="SVGID_00000103965812338210824880000011166297701449530776_">
			<use xlink:href="#SVGID_00000109736172035576956120000016144017704890825628_" style="overflow:visible;"/>
		</clipPath>

			<ellipse transform="matrix(0.231 -0.973 0.973 0.231 -278.087 441.8177)"
					 style="clip-path:url(#SVGID_00000103965812338210824880000011166297701449530776_);fill:#E6A123;"
					 cx="140.448" cy="396.825" rx="73.97" ry="73.97"/>
			<g style="clip-path:url(#SVGID_00000103965812338210824880000011166297701449530776_);">
			<path style="fill:#664B3A;" d="M112.776,429.057c-5.392,18.988,56.915,22.528,52.99,0.373
				c-3.531-19.93,2.148-23.846,4.608-53.311c0.422-5.058,1.623-27.526-29.892-27.526c-31.515,0-30.031,25.664-30.082,28.803
				C110.059,398.272,118.506,408.879,112.776,429.057z"/>
				<path style="fill:#DED2B5;" d="M163.517,420.984c-5.216-2.379-10.429-3.805-12.853-3.805c0,0-0.385-0.034-0.754-0.04
				c-0.191-7.679,0.446-17.99,0.446-17.99h-19.828c0,0,0.95,10.508,0.705,17.992c-0.418-0.014-1.003,0.038-1.003,0.038
				c-2.424,0-7.637,1.426-12.853,3.805c-7.147,3.263-14.303,8.316-14.303,13.952c0,9.747,0,35.858,0,35.858h37.373h37.372
				c0,0,0-26.111,0-35.858C177.82,429.301,170.665,424.247,163.517,420.984z"/>
				<path style="fill:#F1E4C4;" d="M167.005,374.648c-0.434,0-0.855,0.071-1.262,0.202c-3.464-10.991-13.682-16.716-25.752-16.716
				c-11.989,0-22.147,5.62-25.679,16.496c-0.14-0.014-0.28-0.024-0.423-0.024c-3.214,0-5.819,3.792-5.819,8.47
				c0,4.505,2.416,8.186,5.466,8.453c1.682,10.874,7.793,18.732,26.456,18.732c18.651,0,24.766-7.848,26.452-18.712
				c0.185,0.026,0.373,0.04,0.562,0.04c3.214,0,5.82-3.793,5.82-8.47C172.826,378.44,170.22,374.648,167.005,374.648z"/>
				<path style="fill:#664B3A;" d="M113.127,374.757c0,0,0.221-0.138,1.517-0.127c5.117,0.047,17.033,2.766,27.402-9.852
				c9.954,17.376,21.927,11.16,24.029,10.072c0.759-0.393,1.693-0.176,1.693-0.176s-3.706-22.26-25.711-22.26
				C120.052,352.414,113.127,374.757,113.127,374.757z"/>
				<path style="fill:#62A5A2;" d="M163.517,420.984c-5.216-2.379-10.429-3.805-12.853-3.805c0,0-0.385-0.034-0.754-0.04
				c-0.001-0.02-2.099,5.814-8.887,5.814c-6.788,0-9.788-5.864-9.789-5.811c-0.418-0.014-1.003,0.038-1.003,0.038
				c-2.424,0-7.637,1.426-12.853,3.805c-7.147,3.263-14.303,8.316-14.303,13.952c0,9.747,0,35.858,0,35.858h37.373h37.372
				c0,0,0-26.111,0-35.858C177.82,429.301,170.665,424.247,163.517,420.984z"/>
				<polygon style="fill:#FFFFFF;"
						 points="150.081,417.14 140.448,422.953 145.555,430.083 156.516,417.14 			"/>
				<polygon style="fill:#FFFFFF;"
						 points="131.42,417.14 140.681,422.953 135.948,430.083 124.986,417.14 			"/>
		</g>
	</g>
		<g>
		<defs>
			<path id="SVGID_00000021820211761922645160000009027785570306239139_" d="M214.418,203.048c0,40.853-33.118,73.97-73.971,73.97
				c-40.853,0-73.971-33.117-73.971-73.97c0-40.853,33.118-73.971,73.971-73.971C181.301,129.077,214.418,162.195,214.418,203.048z"
			/>
		</defs>
			<clipPath id="SVGID_00000163758209051590255520000011567303279979526026_">
			<use xlink:href="#SVGID_00000021820211761922645160000009027785570306239139_" style="overflow:visible;"/>
		</clipPath>
			<path style="clip-path:url(#SVGID_00000163758209051590255520000011567303279979526026_);fill:#5E7F55;" d="M214.418,203.048
			c0,40.853-33.118,73.97-73.971,73.97c-40.853,0-73.971-33.117-73.971-73.97c0-40.853,33.118-73.971,73.971-73.971
			C181.301,129.077,214.418,162.195,214.418,203.048z"/>
			<g style="clip-path:url(#SVGID_00000163758209051590255520000011567303279979526026_);">
			<path style="fill:#DED2B5;" d="M163.517,224.792c-5.216-2.381-10.429-3.806-12.853-3.806c0,0-0.385-0.035-0.754-0.04
				c-0.191-7.678,0.446-17.989,0.446-17.989h-19.828c0,0,0.95,10.507,0.705,17.991c-0.418-0.014-1.003,0.038-1.003,0.038
				c-2.424,0-7.637,1.424-12.853,3.806c-7.147,3.261-14.303,8.315-14.303,13.951c0,9.747,0,35.86,0,35.86h37.373h37.372
				c0,0,0-26.113,0-35.86C177.82,233.106,170.665,228.052,163.517,224.792z"/>
				<path style="fill:#E74424;" d="M116.242,227.023c0,2.402,0,49.995,0,49.995h49.781c0,0,0-48.516,0-51.65
				c0-3.133-2.315-3.282-3.839-1.665c-1.524,1.616-3.988,7.847-21.425,7.847s-18.188-7.19-20.8-8.408
				C117.348,221.924,116.242,224.62,116.242,227.023z"/>
				<path style="fill:#F1E4C4;" d="M168.9,177.981c-0.434,0-0.855,0.071-1.263,0.202c-3.464-10.991-13.682-16.716-25.752-16.716
				c-11.989,0-22.147,5.62-25.678,16.496c-0.14-0.014-0.281-0.024-0.423-0.024c-3.214,0-5.82,3.792-5.82,8.47
				c0,4.504,2.416,8.187,5.466,8.453c1.682,10.874,7.793,18.73,26.455,18.73c18.652,0,24.767-7.847,26.453-18.711
				c0.185,0.026,0.372,0.04,0.562,0.04c3.214,0,5.82-3.792,5.82-8.471C174.72,181.773,172.114,177.981,168.9,177.981z"/>
				<path style="fill:#E6A123;" d="M169.731,178.067c0,0-1.423-0.181-2.204,0.162c-3.868,1.697-15.599,6.18-25.076-4.857
				c-4.865,5.605-13.117,7.1-19.251,7.1c-3.301,0-5.705-1.831-6.993-2.508c-1.147-0.156-2.006,0.293-2.006,0.293
				s-1.45-25.935,28.251-25.935C172.151,152.322,169.731,178.067,169.731,178.067z"/>
				<path style="fill:#E6A123;" d="M156.96,153.37c0,7.162-6.496,14.984-14.508,14.984c-8.013,0-14.508-7.822-14.508-14.984
				s6.496-12.968,14.508-12.968C150.463,140.401,156.96,146.208,156.96,153.37z"/>
				<rect x="116.242" y="235.66" style="fill:#D43D21;" width="49.781" height="6.165"/>
				<rect x="116.242" y="251.604" style="fill:#D43D21;" width="49.781" height="6.165"/>
				<rect x="116.242" y="267.546" style="fill:#D43D21;" width="49.781" height="6.166"/>
				<rect x="116.242" y="244.255" style="fill:#FFFFFF;" width="49.781" height="3.612"/>
				<rect x="116.242" y="261.194" style="fill:#FFFFFF;" width="49.781" height="3.612"/>
		</g>
	</g>
		<g>
		<defs>
			<path id="SVGID_00000158024805931677953230000003976153624550455971_" d="M388.246,203.048c0,40.853-33.117,73.97-73.97,73.97
				s-73.971-33.117-73.971-73.97c0-40.853,33.118-73.971,73.971-73.971S388.246,162.195,388.246,203.048z"/>
		</defs>
			<clipPath id="SVGID_00000090277279073220404750000017451473763313343617_">
			<use xlink:href="#SVGID_00000158024805931677953230000003976153624550455971_" style="overflow:visible;"/>
		</clipPath>
			<path style="clip-path:url(#SVGID_00000090277279073220404750000017451473763313343617_);fill:#81B6B2;" d="M388.246,203.048
			c0,40.853-33.117,73.97-73.97,73.97s-73.971-33.117-73.971-73.97c0-40.853,33.118-73.971,73.971-73.971
			S388.246,162.195,388.246,203.048z"/>
			<g style="clip-path:url(#SVGID_00000090277279073220404750000017451473763313343617_);">
			<path style="fill:#735542;" d="M316.105,150.728c-24.943,0-30.922,11.383-35.219,23.714c-4.297,12.331-0.467,63.524-0.467,63.524
				l67.542-0.934c0,0,4.39-52.594,0-64.366C343.57,160.896,335.925,150.728,316.105,150.728z"/>
				<path style="fill:#DED2B5;" d="M324.085,224.786c-0.75-7.215,0.191-22.475,0.191-22.475h-19.827c0,0,1.428,15.792,0.332,22.446
				c-7.447,1.476-11.468,4.619-11.468,8.257c0,5.057,8.805,9.155,21.05,9.155s20.677-4.098,20.677-9.155
				C335.04,229.399,331.456,226.274,324.085,224.786z"/>
				<path style="fill:#F1E4C4;" d="M340.909,177.898c-0.45,0-0.888,0.071-1.311,0.203c-3.596-10.991-12.707-18.958-25.235-18.958
				c-12.445,0-21.868,7.862-25.533,18.738c-0.146-0.014-0.291-0.025-0.439-0.025c-3.336,0-6.041,3.793-6.041,8.471
				c0,4.504,2.508,8.186,5.674,8.453c1.746,10.875,6.968,18.73,26.339,18.73c19.36,0,24.212-7.847,25.962-18.711
				c0.192,0.025,0.387,0.04,0.583,0.04c3.336,0,6.04-3.793,6.04-8.471C346.949,181.69,344.245,177.898,340.909,177.898z"/>
				<path style="fill:#735542;" d="M288.39,177.855c0,0,4.3,0.399,13.641-0.277c9.34-0.676,14.448-0.925,18.846-7.278
				c-0.373,5.481,2.072,6.144,6.684,7.494c4.612,1.35,12.037,0.307,12.037,0.307s-2.757-22.613-24.762-22.613
				C292.831,155.488,288.39,177.855,288.39,177.855z"/>
				<path style="fill:#A26280;" d="M337.346,227.208c-5.217-2.38-10.43-3.805-12.853-3.805c0,0-0.012-0.035-0.381-0.04
				c0-0.021-2.288,7.588-9.076,7.588c-6.789,0-10.345-7.638-10.347-7.586c-0.418-0.014-0.629,0.038-0.629,0.038
				c-2.424,0-7.637,1.425-12.853,3.805c-7.148,3.261-14.303,8.315-14.303,13.95c0,9.748,0,35.86,0,35.86h37.373h37.372
				c0,0,0-26.112,0-35.86C351.648,235.523,344.493,230.469,337.346,227.208z"/>
				<path style="fill:none;stroke:#E6A123;stroke-width:5;stroke-miterlimit:10;" d="M304.225,223.386
				c0,0.901,2.606,7.309,10.155,7.309c7.548,0,10.32-5.794,10.32-7.289"/>
		</g>
	</g>
		<g>
		<defs>
			<path id="SVGID_00000181775777573607504530000016461576328295765424_" d="M735.902,203.048c0,40.853-33.117,73.97-73.972,73.97
				c-40.852,0-73.97-33.117-73.97-73.97c0-40.853,33.118-73.971,73.97-73.971C702.785,129.077,735.902,162.195,735.902,203.048z"/>
		</defs>
			<clipPath id="SVGID_00000066495334596598558390000014800006435590609280_">
			<use xlink:href="#SVGID_00000181775777573607504530000016461576328295765424_" style="overflow:visible;"/>
		</clipPath>
			<path style="clip-path:url(#SVGID_00000066495334596598558390000014800006435590609280_);fill:#E6A123;" d="M735.902,203.048
			c0,40.853-33.117,73.97-73.972,73.97c-40.852,0-73.97-33.117-73.97-73.97c0-40.853,33.118-73.971,73.97-73.971
			C702.785,129.077,735.902,162.195,735.902,203.048z"/>
			<g style="clip-path:url(#SVGID_00000066495334596598558390000014800006435590609280_);">
			<path style="fill:#735542;" d="M631.915,218.26c5.854,5.98,56.8,6.353,60.163,0c3.362-6.353,7.402-38.228,1.345-49.486
				c-5.467-10.161-12.94-16.529-30.492-16.529c-19.805,0-26.167,6.71-31.522,18.31C626.052,182.155,626.061,212.281,631.915,218.26z
				"/>
				<path style="fill:#DED2B5;" d="M685,224.792c-5.216-2.381-10.428-3.806-12.852-3.806c0,0-0.387-0.035-0.755-0.04
				c-0.19-7.678,0.446-17.989,0.446-17.989h-19.827c0,0,0.949,10.507,0.704,17.991c-0.417-0.014-1.002,0.038-1.002,0.038
				c-2.424,0-7.637,1.424-12.854,3.806c-7.146,3.261-14.303,8.315-14.303,13.951c0,9.747,0,35.86,0,35.86h37.372h37.373
				c0,0,0-26.113,0-35.86C699.304,233.106,692.148,228.052,685,224.792z"/>
				<path style="fill:#F1E4C4;" d="M688.099,178.543c-0.45,0-0.889,0.071-1.31,0.202c-3.597-10.991-12.334-18.957-24.862-18.957
				c-12.443,0-20.746,7.861-24.412,18.738c-0.146-0.015-0.29-0.025-0.438-0.025c-3.336,0-6.041,3.791-6.041,8.47
				c0,4.504,2.509,8.186,5.674,8.453c1.745,10.874,5.847,18.731,25.218,18.731c19.36,0,23.839-7.848,25.589-18.712
				c0.192,0.026,0.387,0.04,0.584,0.04c3.336,0,6.041-3.792,6.041-8.47C694.14,182.335,691.435,178.543,688.099,178.543z"/>
				<path style="fill:#735542;" d="M637.075,178.501l18.67-0.395c0,0,0.294-5.511,3.283-6.819c-0.188,3.55,0.902,6.819,0.902,6.819
				l26.857,0.638c0,0-2.384-22.611-24.388-22.611C640.396,156.133,637.075,178.501,637.075,178.501z"/>
				<path style="fill:#E74424;" d="M635.11,227.023c0,2.402,0,49.995,0,49.995h52.396c0,0,0-49.263,0-52.398
				c0-3.132-8.746-5.271-10.271-3.654c-1.524,1.616-5.743,18.626-16.015,18.626c-10.271,0-13.229-17.408-15.841-18.626
				C642.769,219.748,635.11,224.62,635.11,227.023z"/>
		</g>
	</g>
		<g>
		<defs>
			
				<ellipse id="SVGID_00000105404880746489160420000013437362729724092290_"
						 transform="matrix(0.1606 -0.987 0.987 0.1606 18.0602 814.8852)" cx="488.103" cy="396.825"
						 rx="73.97" ry="73.971"/>
		</defs>
			<clipPath id="SVGID_00000070080566365459926570000012050494303549601671_">
			<use xlink:href="#SVGID_00000105404880746489160420000013437362729724092290_" style="overflow:visible;"/>
		</clipPath>

			<ellipse transform="matrix(0.1606 -0.987 0.987 0.1606 18.0602 814.8852)"
					 style="clip-path:url(#SVGID_00000070080566365459926570000012050494303549601671_);fill:#185787;"
					 cx="488.103" cy="396.825" rx="73.97" ry="73.971"/>
			<g style="clip-path:url(#SVGID_00000070080566365459926570000012050494303549601671_);">
			<g>
				<polygon style="fill:#55734C;"
						 points="501.736,417.178 488.103,461.462 500.507,455.102 505.935,418.634 				"/>
			</g>
				<g>
				<polygon style="fill:#55734C;"
						 points="474.473,417.178 488.103,461.462 475.7,455.102 470.272,418.634 				"/>
			</g>
				<g>
				<path style="fill:#DED2B5;" d="M497.834,418.785c-0.75-7.215,0.192-22.474,0.192-22.474h-19.827c0,0,1.428,15.792,0.332,22.446
					c-7.448,1.476-3.081,4.059-3.081,7.696c0,5.058,0.418,9.717,12.662,9.717c12.245,0,16.112-7.795,16.112-12.852
					C504.225,419.702,505.206,420.273,497.834,418.785z"/>
					<path style="fill:#FFFFFF;" d="M500.254,416.827c-3.27,0-7.566,0.941-12.149,1.04l-0.137,18.596v-19.18
					c-4.583-0.1-8.744-0.456-12.014-0.456c-5.745,0-23.885,8.359-23.885,18.109c0,9.747,0,35.858,0,35.858h35.422h0.477h36.17
					c0,0,0-26.111,0-35.858C524.138,425.186,505.999,416.827,500.254,416.827z"/>
					<g>
					<rect x="487.96" y="421.868" style="fill:#EEEFEF;" width="0.288" height="48.917"/>
						<g>
						<path style="fill:#EEEFEF;" d="M490.866,431.091c0,0.478-0.39,0.867-0.869,0.867c-0.479,0-0.867-0.39-0.867-0.867
							c0-0.479,0.389-0.869,0.867-0.869C490.477,430.222,490.866,430.611,490.866,431.091z"/>
							<path style="fill:#EEEFEF;" d="M490.866,435.605c0,0.48-0.39,0.867-0.869,0.867c-0.479,0-0.867-0.387-0.867-0.867
							c0-0.479,0.389-0.867,0.867-0.867C490.477,434.738,490.866,435.126,490.866,435.605z"/>
							<path style="fill:#EEEFEF;" d="M490.866,440.12c0,0.48-0.39,0.869-0.869,0.869c-0.479,0-0.867-0.389-0.867-0.869
							c0-0.477,0.389-0.867,0.867-0.867C490.477,439.253,490.866,439.643,490.866,440.12z"/>
							<path style="fill:#EEEFEF;" d="M490.866,444.637c0,0.479-0.39,0.867-0.869,0.867c-0.479,0-0.867-0.389-0.867-0.867
							c0-0.479,0.389-0.869,0.867-0.869C490.477,443.768,490.866,444.157,490.866,444.637z"/>
							<path style="fill:#EEEFEF;" d="M490.866,449.151c0,0.48-0.39,0.867-0.869,0.867c-0.479,0-0.867-0.387-0.867-0.867
							c0-0.479,0.389-0.867,0.867-0.867C490.477,448.284,490.866,448.672,490.866,449.151z"/>
					</g>
						<g>
						<path style="fill:#EEEFEF;" d="M490.866,449.151c0,0.48-0.39,0.867-0.869,0.867c-0.479,0-0.867-0.387-0.867-0.867
							c0-0.479,0.389-0.867,0.867-0.867C490.477,448.284,490.866,448.672,490.866,449.151z"/>
							<path style="fill:#EEEFEF;" d="M490.866,453.666c0,0.481-0.39,0.869-0.869,0.869c-0.479,0-0.867-0.389-0.867-0.869
							c0-0.477,0.389-0.867,0.867-0.867C490.477,452.799,490.866,453.189,490.866,453.666z"/>
							<path style="fill:#EEEFEF;" d="M490.866,458.183c0,0.479-0.39,0.867-0.869,0.867c-0.479,0-0.867-0.389-0.867-0.867
							c0-0.479,0.389-0.867,0.867-0.867C490.477,457.315,490.866,457.703,490.866,458.183z"/>
							<path style="fill:#EEEFEF;" d="M490.866,462.697c0,0.48-0.39,0.869-0.869,0.869c-0.479,0-0.867-0.389-0.867-0.869
							c0-0.478,0.389-0.867,0.867-0.867C490.477,461.83,490.866,462.22,490.866,462.697z"/>
							<path style="fill:#EEEFEF;" d="M490.866,467.214c0,0.479-0.39,0.867-0.869,0.867c-0.479,0-0.867-0.389-0.867-0.867
							c0-0.479,0.389-0.868,0.867-0.868C490.477,466.346,490.866,466.734,490.866,467.214z"/>
					</g>
				</g>
			</g>
				<polygon style="fill:#EEEFEF;"
						 points="497.455,416.617 487.822,422.431 492.929,429.56 506.132,416.617 			"/>
				<polygon style="fill:#EEEFEF;"
						 points="478.844,416.617 488.104,422.431 483.371,429.56 469.794,416.617 			"/>
				<g>
				<path style="fill:#F1E4C4;" d="M515.9,372.129c-0.451,0-0.889,0.071-1.31,0.202c-3.597-10.991-14.204-18.957-26.731-18.957
					c-12.444,0-22.988,7.861-26.654,18.737c-0.145-0.014-0.291-0.024-0.438-0.024c-3.336,0-6.04,3.792-6.04,8.47
					c0,4.504,2.508,8.187,5.673,8.453c1.745,10.874,8.089,18.731,27.46,18.731c19.36,0,25.707-7.848,27.457-18.712
					c0.192,0.026,0.387,0.04,0.584,0.04c3.336,0,6.042-3.792,6.042-8.47C521.942,375.921,519.236,372.129,515.9,372.129z"/>
					<path style="fill:#735542;" d="M462.267,384.835c1.619,0.373,1.993-9.858,2.74-12.333c0.713-0.871,8.843-1.806,14.355-7.317
					c4.109,7.94,31.357,7.816,31.357,7.816s0.373,15.196,1.744,11.21c1.386-4.03,1.511-3.557,2.128-11.881
					c0,0,0.409-0.107,0.729-0.162c-0.003-3.233-1.491-16.915-13.729-19.945c-3.824-8.431-16.717-11.42-28.486-4.134
					c-9.739,6.029-12.608,20.931-13.174,24.079c0.438-0.063,0.837-0.081,0.837-0.081S460.646,384.461,462.267,384.835z"/>
			</g>
				<path style="fill:#414042;" d="M496.041,415.672l-3.722,2.083c-0.017,0.01-0.033,0.02-0.05,0.032
				c-0.714-1.192-2.368-2.024-4.296-2.024c-1.572,0-2.959,0.555-3.807,1.405c-0.017-0.008-0.033-0.019-0.05-0.024l-3.602-1.528
				c-0.77-0.326-1.399,0.163-1.399,1.091v4.88c0,0.928,0.603,1.347,1.339,0.936l3.376-1.888c0.778,1.066,2.34,1.797,4.143,1.797
				c1.692,0,3.171-0.646,3.989-1.607c0.133,0.085,0.27,0.166,0.417,0.227l3.601,1.528c0.77,0.326,1.399-0.164,1.399-1.091v-4.88
				C497.38,415.68,496.777,415.261,496.041,415.672z"/>
		</g>
	</g>
		<g>
		<defs>
			<path id="SVGID_00000108997037720256601760000014204086261310896013_" d="M562.074,203.048c0,40.853-33.118,73.97-73.971,73.97
				c-40.851,0-73.971-33.117-73.971-73.97c0-40.853,33.119-73.971,73.971-73.971C528.956,129.077,562.074,162.195,562.074,203.048z"
			/>
		</defs>
			<clipPath id="SVGID_00000069389596045385306420000001763439338182074274_">
			<use xlink:href="#SVGID_00000108997037720256601760000014204086261310896013_" style="overflow:visible;"/>
		</clipPath>
			<path style="clip-path:url(#SVGID_00000069389596045385306420000001763439338182074274_);fill:#A26280;" d="M562.074,203.048
			c0,40.853-33.118,73.97-73.971,73.97c-40.851,0-73.971-33.117-73.971-73.97c0-40.853,33.119-73.971,73.971-73.971
			C528.956,129.077,562.074,162.195,562.074,203.048z"/>
			<g style="clip-path:url(#SVGID_00000069389596045385306420000001763439338182074274_);">
			<path style="fill:#185787;" d="M500.47,224.128c-3.271,0-7.433,0.114-12.016,0.212l-0.271,19.424v-19.424
				c-4.583-0.099-8.744-0.212-12.016-0.212c-5.744,0-23.883,8.36-23.883,18.108c0,9.748,0,35.86,0,35.86h35.421h0.478h36.169
				c0,0,0-26.112,0-35.86C524.352,232.488,506.215,224.128,500.47,224.128z"/>
				<polygon style="fill:#FFFFFF;" points="497.435,220.85 501.736,224.095 501.352,225.34 474.854,225.34 474.471,224.095
				478.722,220.85 			"/>
				<path style="fill:#DED2B5;" d="M497.673,225.521c-0.75-7.215,0.191-22.473,0.191-22.473h-19.827c0,0,1.429,15.792,0.333,22.445
				c-7.448,1.476-5.293,2.976-5.293,6.615c0,5.056,2.63,10.799,14.874,10.799c12.245,0,15.813-7.19,15.813-12.247
				C503.765,227.044,505.045,227.01,497.673,225.521z"/>
				<path style="fill:#F1E4C4;" d="M514.875,178.635c-0.435,0-0.856,0.071-1.264,0.202c-3.464-10.991-13.682-16.716-25.752-16.716
				c-11.988,0-22.146,5.62-25.679,16.496c-0.139-0.014-0.28-0.024-0.423-0.024c-3.214,0-5.819,3.792-5.819,8.47
				c0,4.504,2.416,8.186,5.466,8.453c1.682,10.874,7.794,18.731,26.455,18.731c18.651,0,24.768-7.848,26.453-18.712
				c0.185,0.026,0.373,0.04,0.563,0.04c3.214,0,5.819-3.793,5.819-8.47C520.694,182.427,518.089,178.635,514.875,178.635z"/>
				<path style="fill:#664B3A;" d="M462.181,177.21c-0.267,8.004-0.827,11.215,2.474,11.048c3.302-0.165,3.8-17.131,7.419-22.104
				C468.765,166.266,462.449,169.204,462.181,177.21z"/>
				<path style="fill:#664B3A;" d="M513.588,177.246c0.268,8.005,0.829,11.214-2.472,11.049c-3.302-0.165-3.8-17.131-7.419-22.105
				C507.005,166.301,513.321,169.241,513.588,177.246z"/>
				<path style="fill:#FFFFFF;" d="M474.471,224.095l13.633,44.283l13.633-44.283l-1.944-1.466c0,0-8.495,3.173-11.841,3.173
				c-4.042,0-10.81-2.707-10.81-2.707L474.471,224.095z"/>
				<polygon style="fill:#D43D21;"
						 points="486.728,226.727 483.618,254.466 488.103,268.378 492.715,254.244 489.636,226.727 			"/>
				<path style="fill:#E74424;" d="M492.6,225.793c0,1.857-1.925,3.362-4.297,3.362c-2.373,0-4.298-1.505-4.298-3.362
				c0-1.858,1.925-3.363,4.298-3.363C490.675,222.43,492.6,223.935,492.6,225.793z"/>
				<g>
				<g>
					<polygon style="fill:#134F7C;"
							 points="501.951,224.106 488.319,268.389 500.723,262.03 506.15,225.561 					"/>
				</g>
			</g>
				<g>
				<g>
					<polygon style="fill:#134F7C;"
							 points="474.688,224.106 488.319,268.389 475.916,262.03 470.488,225.561 					"/>
				</g>
			</g>
		</g>
	</g>
		<g>
		<defs>
			<path id="SVGID_00000105428097710160952360000007015950781195816112_" d="M735.902,396.825c0,40.854-33.117,73.97-73.972,73.97
				c-40.852,0-73.97-33.116-73.97-73.97c0-40.853,33.118-73.971,73.97-73.971C702.785,322.854,735.902,355.972,735.902,396.825z"/>
		</defs>
			<clipPath id="SVGID_00000044166534078616343920000012206011796276724099_">
			<use xlink:href="#SVGID_00000105428097710160952360000007015950781195816112_" style="overflow:visible;"/>
		</clipPath>
			<path style="clip-path:url(#SVGID_00000044166534078616343920000012206011796276724099_);fill:#81B6B2;" d="M735.902,396.825
			c0,40.854-33.117,73.97-73.972,73.97c-40.852,0-73.97-33.116-73.97-73.97c0-40.853,33.118-73.971,73.97-73.971
			C702.785,322.854,735.902,355.972,735.902,396.825z"/>
			<g style="clip-path:url(#SVGID_00000044166534078616343920000012206011796276724099_);">
			<path style="fill:#5E7F55;" d="M674.082,416.827c-3.269,0-7.432,0.115-12.015,0.212l-0.271,19.424v-19.424
				c-4.583-0.097-8.746-0.212-12.016-0.212c-5.744,0-23.884,8.359-23.884,18.109c0,9.747,0,35.858,0,35.858h35.422h0.478h36.169
				c0,0,0-26.111,0-35.858C697.966,425.186,679.826,416.827,674.082,416.827z"/>
				<g>
				<polygon style="fill:#55734C;"
						 points="675.563,416.805 661.932,461.089 674.335,454.728 679.763,418.259 				"/>
			</g>
				<g>
				<polygon style="fill:#55734C;"
						 points="648.301,416.805 661.932,461.089 649.528,454.728 644.101,418.259 				"/>
			</g>
				<g>
				<path style="fill:#5E7F55;" d="M674.082,416.827c-3.269,0-7.432,0.115-12.015,0.212l-0.271,19.424v-19.424
					c-4.583-0.097-8.746-0.212-12.016-0.212c-5.744,0-23.884,8.359-23.884,18.109c0,9.747,0,35.858,0,35.858h35.422h0.478h36.169
					c0,0,0-26.111,0-35.858C697.966,425.186,679.826,416.827,674.082,416.827z"/>
					<path style="fill:#DED2B5;" d="M671.662,418.785c-0.75-7.215,0.191-22.474,0.191-22.474h-19.827c0,0,1.429,15.792,0.333,22.446
					c-7.447,1.476-3.08,4.059-3.08,7.696c0,5.058,0.416,9.717,12.661,9.717c12.245,0,16.111-7.795,16.111-12.852
					C678.052,419.702,679.034,420.273,671.662,418.785z"/>
					<path style="fill:#F1E4C4;" d="M688.864,371.897c-0.435,0-0.856,0.071-1.264,0.202c-3.464-10.99-13.683-16.714-25.752-16.714
					c-11.988,0-22.147,5.618-25.678,16.496c-0.14-0.015-0.281-0.025-0.424-0.025c-3.214,0-5.82,3.792-5.82,8.47
					c0,4.504,2.417,8.186,5.467,8.454c1.682,10.873,7.793,18.731,26.455,18.731c18.652,0,24.767-7.848,26.452-18.713
					c0.185,0.026,0.373,0.04,0.563,0.04c3.214,0,5.819-3.792,5.819-8.47C694.684,375.69,692.078,371.897,688.864,371.897z"/>
					<path style="fill:#735542;" d="M637.882,384.176c-2.429,0-1.741-11.722-1.711-12.296c-0.847-0.124-1.674,0.171-1.674,0.171
					s-1.813-7.82,4.035-16.218c2.991-4.294,12.255-11.931,23.318-11.931s21.993,5.512,25.169,13.172
					c3.177,7.66,2.655,14.904,2.655,14.904s-0.981-0.222-2.074,0.12c0,1.915-0.367,11.419-1.955,11.286
					c-1.589-0.133-1.533-4.17-1.533-8.467c0-2.622-7.602-10.323-21.475-10.323c-13.872,0-22.585,6.504-22.868,10.042
					C639.392,379.351,638.793,384.176,637.882,384.176z"/>
					<path style="fill:#FFFFFF;" d="M648.301,416.805l13.631,44.284l13.632-44.284l-4.123-1.466c0,0-6.314,3.172-9.66,3.172
					c-4.043,0-9.448-3.511-9.448-3.511L648.301,416.805z"/>
					<g>
					<polygon style="fill:#55734C;"
							 points="675.563,416.805 661.932,461.089 674.335,454.728 679.763,418.259 					"/>
				</g>
					<g>
					<polygon style="fill:#55734C;"
							 points="648.301,416.805 661.932,461.089 649.528,454.728 644.101,418.259 					"/>
				</g>
					<g>
					<polygon style="fill:#EEEFEF;" points="662.076,460.637 661.932,461.089 661.788,460.637 661.788,421.868 662.076,421.868 
											"/>
						<g>
						<path style="fill:#EEEFEF;" d="M664.693,426.574c0,0.48-0.389,0.867-0.868,0.867c-0.479,0-0.868-0.388-0.868-0.867
							c0-0.477,0.39-0.867,0.868-0.867C664.305,425.707,664.693,426.097,664.693,426.574z"/>
							<path style="fill:#EEEFEF;" d="M664.693,431.091c0,0.478-0.389,0.867-0.868,0.867c-0.479,0-0.868-0.39-0.868-0.867
							c0-0.479,0.39-0.869,0.868-0.869C664.305,430.222,664.693,430.611,664.693,431.091z"/>
							<path style="fill:#EEEFEF;" d="M664.693,435.605c0,0.48-0.389,0.867-0.868,0.867c-0.479,0-0.868-0.387-0.868-0.867
							c0-0.479,0.39-0.867,0.868-0.867C664.305,434.738,664.693,435.126,664.693,435.605z"/>
							<path style="fill:#EEEFEF;" d="M664.693,440.12c0,0.48-0.389,0.869-0.868,0.869c-0.479,0-0.868-0.389-0.868-0.869
							c0-0.477,0.39-0.867,0.868-0.867C664.305,439.253,664.693,439.643,664.693,440.12z"/>
							<path style="fill:#EEEFEF;" d="M664.693,444.637c0,0.479-0.389,0.867-0.868,0.867c-0.479,0-0.868-0.389-0.868-0.867
							c0-0.479,0.39-0.869,0.868-0.869C664.305,443.768,664.693,444.157,664.693,444.637z"/>
							<path style="fill:#EEEFEF;" d="M664.693,449.151c0,0.48-0.389,0.867-0.868,0.867c-0.479,0-0.868-0.387-0.868-0.867
							c0-0.479,0.39-0.867,0.868-0.867C664.305,448.284,664.693,448.672,664.693,449.151z"/>
					</g>
				</g>
					<path style="fill:#414042;" d="M670.013,415.274l-3.722,2.083c-0.017,0.01-0.033,0.023-0.05,0.032
					c-0.714-1.191-2.368-2.024-4.296-2.024c-1.572,0-2.959,0.557-3.806,1.405c-0.018-0.008-0.033-0.016-0.051-0.024l-3.601-1.528
					c-0.769-0.326-1.399,0.163-1.399,1.091v4.88c0,0.928,0.604,1.347,1.339,0.935l3.375-1.888c0.778,1.067,2.34,1.797,4.143,1.797
					c1.692,0,3.171-0.646,3.989-1.606c0.133,0.086,0.271,0.165,0.417,0.226l3.601,1.528c0.771,0.326,1.399-0.163,1.399-1.091v-4.88
					C671.352,415.284,670.749,414.863,670.013,415.274z"/>
			</g>
		</g>
	</g>
		<g>
		<defs>
			<path id="SVGID_00000100355861259525238030000018431265475218858681_" d="M388.246,592.95c0,40.854-33.117,73.971-73.97,73.971
				s-73.971-33.116-73.971-73.971c0-40.852,33.118-73.969,73.971-73.969S388.246,552.099,388.246,592.95z"/>
		</defs>
			<clipPath id="SVGID_00000100358300347705278160000003985013490615284894_">
			<use xlink:href="#SVGID_00000100355861259525238030000018431265475218858681_" style="overflow:visible;"/>
		</clipPath>
			<path style="clip-path:url(#SVGID_00000100358300347705278160000003985013490615284894_);fill:#5E7F55;" d="M388.246,592.95
			c0,40.854-33.117,73.971-73.97,73.971s-73.971-33.116-73.971-73.971c0-40.852,33.118-73.969,73.971-73.969
			S388.246,552.099,388.246,592.95z"/>
			<g style="clip-path:url(#SVGID_00000100358300347705278160000003985013490615284894_);">
			<path style="fill:#664B3A;" d="M315.687,539.924c-24.942,0-29.767,7.624-34.761,21.178c-3.488,9.467,0.342,9.235-2.899,19.45
				c-3.241,10.213,2.302,10.989,0.694,16.613c-3.15,11.019,5.716,8.182,0.349,16.141c-5.367,7.957,0.932,15.726,0.932,15.726
				l67.542-0.934c0,0,7.545-4.831,1.142-12.19c-3.459-3.977,3.862-8.472,0.25-13.452c-3.613-4.982,1.117-6.829,1.152-12.8
				c0.036-5.968-3.012-4.814-0.855-13.94c0.998-4.221-1.02-10.167-2.041-12.905C342.8,551.038,335.508,539.924,315.687,539.924z"/>
				<path style="fill:#DED2B5;" d="M323.667,615.851c-0.75-7.217,0.191-22.475,0.191-22.475h-19.827c0,0,1.428,15.792,0.332,22.446
				c-7.448,1.476-11.469,4.617-11.469,8.257c0,5.058,8.806,9.156,21.05,9.156c12.245,0,20.677-4.099,20.677-9.156
				C334.622,620.464,331.038,617.339,323.667,615.851z"/>
				<path style="fill:#F1E4C4;" d="M340.491,568.964c-0.45,0-0.889,0.07-1.311,0.201c-3.596-10.991-12.707-18.958-25.235-18.958
				c-12.444,0-21.868,7.862-25.533,18.738c-0.146-0.014-0.291-0.024-0.439-0.024c-3.337,0-6.042,3.793-6.042,8.469
				c0,4.505,2.509,8.187,5.674,8.453c1.746,10.874,6.968,18.732,26.339,18.732c19.36,0,24.212-7.849,25.962-18.712
				c0.192,0.025,0.387,0.04,0.584,0.04c3.336,0,6.04-3.793,6.04-8.471C346.532,572.754,343.827,568.964,340.491,568.964z"/>
				<path style="fill:#664B3A;" d="M287.973,568.921c0,0,4.3,0.398,13.641-0.278c9.34-0.675,12.778-1.563,17.177-7.914
				c-0.374,5.478,3.741,6.781,8.353,8.13c4.612,1.35,12.037,0.307,12.037,0.307s-2.757-22.611-24.761-22.611
				C292.414,546.554,287.973,568.921,287.973,568.921z"/>
				<path style="fill:#DED2B5;" d="M304.059,613.306c-5.744,0-27.156,8.007-27.156,17.756c0,9.747,0,35.859,0,35.859h37.373v-53.615
				C310.53,613.306,307.38,613.306,304.059,613.306z"/>
				<path style="fill:#E6A123;" d="M337.345,617.11c-5.217-2.379-10.429-3.805-12.852-3.805c0,0-0.274-0.093-0.582,0
				c-0.253,4.952,1.848,14.893-9.304,14.893c-0.115,0-0.219-0.009-0.332-0.011c-0.112,0.002-0.217,0.011-0.332,0.011
				c-11.151,0-9.051-9.941-9.304-14.893c-0.308-0.093-0.581,0-0.581,0c-2.424,0-7.637,1.426-12.853,3.805
				c-7.148,3.263-14.303,8.315-14.303,13.951c0,9.747,0,35.859,0,35.859h37.373h37.372c0,0,0-26.112,0-35.859
				C351.648,625.426,344.493,620.373,337.345,617.11z"/>
				<path style="fill:#FFFFFF;" d="M325.34,613.933c-0.021-0.268-0.041-0.522-0.041-0.627h-1.816c0,0.191-0.38,0.784-0.352,1.138
				c0.154,1.968,0.538,6.857-2.296,9.92c-1.469,1.589-3.679,2.418-6.559,2.484c-2.88-0.066-5.09-0.896-6.559-2.484
				c-2.833-3.063-2.463-7.765-2.309-9.732c0.027-0.354-0.357-1.325-0.768-1.325h-1.388c0,0.104-0.02,0.359-0.041,0.627
				c-0.175,2.234-0.641,8.171,2.859,11.953c1.908,2.063,4.668,3.14,8.205,3.21c3.537-0.07,6.297-1.148,8.205-3.21
				C325.979,622.104,325.515,616.167,325.34,613.933z"/>
				<g>
				<path style="fill:#FFFFFF;" d="M314.376,650.309c-0.034,0-0.068,0.004-0.101,0.006c-0.034-0.002-0.066-0.006-0.1-0.006
					c-1.393,0-2.522,1.129-2.522,2.523c0,1.393,1.129,2.522,2.522,2.522c0.034,0,0.066-0.004,0.1-0.006
					c0.033,0.002,0.067,0.006,0.101,0.006c1.392,0,2.522-1.129,2.522-2.522C316.898,651.438,315.769,650.309,314.376,650.309z"/>
					<path style="fill:#FFFFFF;" d="M314.275,636.918c1.388-0.009,2.509-1.134,2.509-2.524c0-1.387-1.122-2.514-2.509-2.519
					c-1.387,0.006-2.509,1.133-2.509,2.519C311.766,635.784,312.889,636.909,314.275,636.918z"/>
					<path style="fill:#FFFFFF;" d="M314.232,646.137c0.015,0,0.029-0.002,0.043-0.004c0.015,0.002,0.029,0.004,0.044,0.004
					c1.394,0,2.522-1.132,2.522-2.522c0-1.394-1.128-2.523-2.522-2.523c-0.015,0-0.029,0.002-0.044,0.002
					c-0.015,0-0.028-0.002-0.043-0.002c-1.393,0-2.523,1.129-2.523,2.523C311.709,645.005,312.839,646.137,314.232,646.137z"/>
			</g>
		</g>
	</g>
		<g>
		<defs>
			<path id="SVGID_00000030453176029342787040000008107808223566620036_" d="M214.418,592.95c0,40.854-33.118,73.971-73.971,73.971
				c-40.852,0-73.97-33.116-73.97-73.971c0-40.852,33.118-73.969,73.97-73.969C181.301,518.981,214.418,552.099,214.418,592.95z"/>
		</defs>
			<clipPath id="SVGID_00000103263868181624604970000015320987263729895568_">
			<use xlink:href="#SVGID_00000030453176029342787040000008107808223566620036_" style="overflow:visible;"/>
		</clipPath>
			<path style="clip-path:url(#SVGID_00000103263868181624604970000015320987263729895568_);fill:#185787;" d="M214.418,592.95
			c0,40.854-33.118,73.971-73.971,73.971c-40.852,0-73.97-33.116-73.97-73.971c0-40.852,33.118-73.969,73.97-73.969
			C181.301,518.981,214.418,552.099,214.418,592.95z"/>
			<g style="clip-path:url(#SVGID_00000103263868181624604970000015320987263729895568_);">
			<path style="fill:#DED2B5;" d="M150.17,613.256c-0.751-7.217,0.191-22.475,0.191-22.475h-19.828c0,0,1.428,15.792,0.333,22.445
				c-7.448,1.477-12.59,4.618-12.59,8.258c0,5.057,9.926,9.154,22.171,9.154c12.246,0,22.171-4.098,22.171-9.154
				C162.619,617.869,157.54,614.743,150.17,613.256z"/>
				<path style="fill:#F1E4C4;" d="M167.951,568.578c-0.443,0-0.874,0.073-1.29,0.208c-3.539-11.231-13.98-17.081-26.314-17.081
				c-12.25,0-22.632,5.741-26.24,16.855c-0.143-0.015-0.287-0.024-0.433-0.024c-3.284,0-5.947,3.873-5.947,8.654
				c0,4.603,2.47,8.366,5.585,8.638c1.719,11.112,7.963,19.14,27.034,19.14c19.059,0,25.307-8.019,27.03-19.119
				c0.189,0.026,0.381,0.04,0.575,0.04c3.284,0,5.947-3.875,5.947-8.656C173.898,572.454,171.235,568.578,167.951,568.578z"/>
				<path style="fill:#E6A123;" d="M114.106,568.56c-0.433-0.024-0.719-0.015-1.714,0.178c-0.832-3.821,0.102-15.625,10.463-24.398
				c19.633-16.621,13.488-6.995,24.561-1.077c11.073,5.92,15.691,6.602,19.892,13.856c4.201,7.255,2.586,11.936,2.586,11.936
				s-1.217-0.857-3.233-0.269c-0.564,0.063-8.596,1.327-14.144-4.216C141.565,553.623,127.975,571.407,114.106,568.56z"/>
				<path style="fill:#E74424;" d="M163.517,617.11c-5.216-2.379-10.429-3.805-12.854-3.805c0,0-0.011-0.034-0.38-0.04
				c0-0.021-2.288,7.59-9.076,7.59c-6.788,0-10.346-7.639-10.347-7.588c-0.418-0.015-0.629,0.038-0.629,0.038
				c-2.424,0-7.637,1.426-12.853,3.805c-7.147,3.263-14.303,8.315-14.303,13.951c0,9.747,0,35.859,0,35.859h37.372h37.372
				c0,0,0-26.112,0-35.859C177.82,625.426,170.665,620.373,163.517,617.11z"/>
				<polygon style="fill:#D43D21;" points="153.152,642.596 145.561,642.596 150.929,637.229 147.934,634.233 142.566,639.602
				142.566,632.01 138.33,632.01 138.33,639.602 132.961,634.233 129.966,637.229 135.334,642.596 127.743,642.596 127.743,646.832 
				135.334,646.832 129.966,652.199 132.961,655.196 138.33,649.828 138.33,657.42 142.566,657.42 142.566,649.828 147.934,655.196 
				150.928,652.199 145.561,646.832 153.152,646.832 			"/>
				<polygon style="fill:#D43D21;" points="125.874,638.071 122.153,638.071 124.784,635.44 123.315,633.972 120.685,636.602
				120.685,632.883 118.608,632.883 118.608,636.602 115.977,633.972 114.509,635.44 117.14,638.071 113.419,638.071 
				113.419,640.148 117.14,640.148 114.509,642.779 115.977,644.247 118.608,641.615 118.608,645.338 120.685,645.338 
				120.685,641.615 123.315,644.247 124.784,642.779 122.153,640.148 125.874,640.148 			"/>
				<polygon style="fill:#D43D21;" points="168.847,639.055 165.126,639.055 167.757,636.424 166.289,634.955 163.657,637.587
				163.657,633.867 161.581,633.867 161.581,637.587 158.95,634.955 157.481,636.424 160.112,639.055 156.391,639.055 
				156.391,641.132 160.112,641.132 157.481,643.763 158.95,645.231 161.581,642.6 161.581,646.322 163.657,646.322 163.657,642.6 
				166.288,645.231 167.757,643.763 165.126,641.132 168.847,641.132 			"/>
		</g>
	</g>
		<g>
		<defs>
			
				<ellipse id="SVGID_00000075143697020202492700000007420271170575375773_"
						 transform="matrix(0.1896 -0.9819 0.9819 0.1896 -134.9422 630.1544)" cx="314.275" cy="396.825"
						 rx="73.97" ry="73.971"/>
		</defs>
			<clipPath id="SVGID_00000137122127851298653240000014794962175796354949_">
			<use xlink:href="#SVGID_00000075143697020202492700000007420271170575375773_" style="overflow:visible;"/>
		</clipPath>

			<ellipse transform="matrix(0.1896 -0.9819 0.9819 0.1896 -134.9422 630.1544)"
					 style="clip-path:url(#SVGID_00000137122127851298653240000014794962175796354949_);fill:#E74424;"
					 cx="314.275" cy="396.825" rx="73.97" ry="73.971"/>
			<g style="clip-path:url(#SVGID_00000137122127851298653240000014794962175796354949_);">
			<path style="fill:#664B3A;" d="M296.006,358.27c0,0-6.382-12.075-12.235,7.47c-4.269,14.248,10.197,43.715-32.575,30.875
				c12.841-3.776,20.866-10.763,16.618-28.798c-4.858-20.62,14.764-32.962,25.878-29.361s10.285,13.122,10.285,13.122
				L296.006,358.27z"/>
				<path style="fill:#DED2B5;" d="M324.827,417.867c-0.75-7.217,0.192-22.475,0.192-22.475h-19.828c0,0,1.427,15.793,0.332,22.444
				c-7.448,1.477-12.59,4.62-12.59,8.26c0,5.055,9.927,11.711,22.172,11.711c12.245,0,22.171-6.656,22.171-11.711
				C337.277,422.478,332.199,419.353,324.827,417.867z"/>
				<path style="fill:#F1E4C4;" d="M343.092,371.352c-0.45,0-0.888,0.072-1.31,0.203c-3.596-10.991-14.203-18.958-26.731-18.958
				c-12.444,0-22.989,7.862-26.654,18.738c-0.145-0.014-0.292-0.025-0.439-0.025c-3.336,0-6.04,3.792-6.04,8.47
				c0,4.504,2.508,8.187,5.673,8.454c1.746,10.874,8.089,18.729,27.461,18.729c19.36,0,25.707-7.846,27.457-18.71
				c0.192,0.025,0.386,0.041,0.583,0.041c3.336,0,6.042-3.793,6.042-8.471C349.134,375.145,346.429,371.352,343.092,371.352z"/>
				<path style="fill:#664B3A;" d="M309.885,361.873c4.11,7.941,31.42,15.85,31.897,9.682c0,0,0.41-0.106,0.728-0.162
				c2.438-30.196-33.061-31.367-44.831-24.08c-9.739,6.028-10.267,20.994-10.833,24.141c0.943-0.238,1.552-0.119,1.552-0.119
				S305.82,369.845,309.885,361.873z"/>
				<path style="fill:#E6A123;" d="M338.175,421.713c-5.217-2.382-10.429-3.807-12.853-3.807c0,0-0.273-0.091-0.581,0
				c-0.253,4.954,1.107,12.192-9.305,19.004c-0.114,0-0.219-0.008-0.331-0.01c-0.112,0.002-0.217,0.01-0.332,0.01
				c-8.169-3.729-9.051-14.05-9.304-19.004c-0.308-0.091-0.581,0-0.581,0c-2.424,0-7.637,1.425-12.853,3.807
				c-7.148,3.261-14.303,8.314-14.303,13.949c0,9.747,0,35.861,0,35.861h37.373h37.372c0,0,0-26.114,0-35.861
				C352.478,430.026,345.322,424.974,338.175,421.713z"/>
				<path style="fill:#FFFFFF;" d="M326.17,418.533c-0.021-0.269-0.041-0.522-0.041-0.627l-1.302-0.039
				c-0.298,0.064-0.895,0.823-0.867,1.176c0.154,1.968,0.538,6.857-2.296,9.923c-1.468,1.587-3.679,6.526-6.559,6.594
				c-2.879-0.067-5.09-5.007-6.559-6.594c-2.834-3.065-2.464-7.768-2.31-9.735c0.028-0.353-0.303-1.394-0.713-1.394l-1.442,0.069
				c0,0.104-0.02,0.358-0.041,0.627c-0.175,2.233-0.64,8.17,2.86,11.955c1.907,2.06,4.668,7.249,8.205,7.319
				c3.537-0.07,6.297-5.259,8.205-7.319C326.81,426.703,326.345,420.767,326.17,418.533z"/>
				<rect x="277.733" y="446.945" style="fill:#D09220;" width="74.745" height="6.477"/>
				<rect x="277.733" y="461.309" style="fill:#D09220;" width="74.745" height="6.477"/>
				<rect x="277.733" y="456.287" style="fill:#FFFFFF;" width="74.745" height="2.242"/>
		</g>
	</g>
</g>
</svg>
